<svg width="174" height="59" viewBox="0 0 174 59" fill="none" xmlns="http://www.w3.org/2000/svg">
<rect width="174" height="59" fill="#CC0001"/>
<rect x="93" y="3" width="78" height="53" fill="white"/>
<path d="M43.873 28.6035H46.1934C47.3301 28.6035 48.2676 28.416 49.0059 28.041C49.7559 27.6543 50.3125 27.1328 50.6758 26.4766C51.0508 25.8086 51.2383 25.0586 51.2383 24.2266C51.2383 23.2422 51.0742 22.416 50.7461 21.748C50.418 21.0801 49.9258 20.5762 49.2695 20.2363C48.6133 19.8965 47.7812 19.7266 46.7734 19.7266C45.8594 19.7266 45.0508 19.9082 44.3477 20.2715C43.6562 20.623 43.1113 21.127 42.7129 21.7832C42.3262 22.4395 42.1328 23.2129 42.1328 24.1035H38.8809C38.8809 22.8027 39.209 21.6191 39.8652 20.5527C40.5215 19.4863 41.4414 18.6367 42.625 18.0039C43.8203 17.3711 45.2031 17.0547 46.7734 17.0547C48.3203 17.0547 49.6738 17.3301 50.834 17.8809C51.9941 18.4199 52.8965 19.2285 53.541 20.3066C54.1855 21.373 54.5078 22.7031 54.5078 24.2969C54.5078 24.9414 54.3555 25.6328 54.0508 26.3711C53.7578 27.0977 53.2949 27.7773 52.6621 28.4102C52.041 29.043 51.2324 29.5645 50.2363 29.9746C49.2402 30.373 48.0449 30.5723 46.6504 30.5723H43.873V28.6035ZM43.873 31.2754V29.3242H46.6504C48.2793 29.3242 49.627 29.5176 50.6934 29.9043C51.7598 30.291 52.5977 30.8066 53.207 31.4512C53.8281 32.0957 54.2617 32.8047 54.5078 33.5781C54.7656 34.3398 54.8945 35.1016 54.8945 35.8633C54.8945 37.0586 54.6895 38.1191 54.2793 39.0449C53.8809 39.9707 53.3125 40.7559 52.5742 41.4004C51.8477 42.0449 50.9922 42.5312 50.0078 42.8594C49.0234 43.1875 47.9512 43.3516 46.791 43.3516C45.6777 43.3516 44.6289 43.1934 43.6445 42.877C42.6719 42.5605 41.8105 42.1035 41.0605 41.5059C40.3105 40.8965 39.7246 40.1523 39.3027 39.2734C38.8809 38.3828 38.6699 37.3691 38.6699 36.2324H41.9219C41.9219 37.123 42.1152 37.9023 42.502 38.5703C42.9004 39.2383 43.4629 39.7598 44.1895 40.1348C44.9277 40.498 45.7949 40.6797 46.791 40.6797C47.7871 40.6797 48.6426 40.5098 49.3574 40.1699C50.084 39.8184 50.6406 39.291 51.0273 38.5879C51.4258 37.8848 51.625 37 51.625 35.9336C51.625 34.8672 51.4023 33.9941 50.957 33.3145C50.5117 32.623 49.8789 32.1133 49.0586 31.7852C48.25 31.4453 47.2949 31.2754 46.1934 31.2754H43.873Z" fill="white"/>
<path d="M93 3C116.667 12.5 164.7 35.2 167.5 50M98.5 53C114.167 36.5 148.9 4.1 162.5 6.5" stroke="#1409B9"/>
</svg>
